<?xml version="1.0" ?>
<!DOCTYPE svg  PUBLIC '-//W3C//DTD SVG 1.1//EN'  'http://www.w3.org/Graphics/SVG/1.1/DTD/svg11.dtd'>
<!-- Uploaded to: SVG Repo, www.svgrepo.com, Generator: SVG Repo Mixer Tools -->
<svg fill="#000000" width="800px" height="800px" viewBox="0 0 512 512" version="1.1" xml:space="preserve" xmlns="http://www.w3.org/2000/svg" xmlns:xlink="http://www.w3.org/1999/xlink">
<g id="_x35_13_x2C__Complex_x2C__global_x2C__internet_x2C__net_x2C__web">
<g>
<path d="M295.268,252.785c-0.235-12.596-1.96-24.409-4.835-34.863    c-10.401,1.83-20.804,2.822-31.231,2.979v31.884H295.268z M290.511,293.765c2.823-10.349,4.521-22.084,4.757-34.55h-36.066v31.57    C269.655,290.942,280.083,291.936,290.511,293.765z M259.201,335.215c9.199-1.568,17.615-9.775,24.019-22.215    c2.038-3.947,3.867-8.338,5.436-13.042c-9.826-1.698-19.627-2.612-29.454-2.77V335.215z M223.345,299.984    c1.594,4.705,3.397,9.068,5.436,13.016c6.403,12.439,14.818,20.646,23.991,22.215v-38.026    C242.972,297.371,233.171,298.313,223.345,299.984z M216.733,259.215c0.235,12.492,1.934,24.227,4.756,34.602    c10.428-1.829,20.855-2.848,31.283-3.031v-31.57H216.733z M221.567,217.896c-2.874,10.454-4.599,22.294-4.834,34.89h36.039    v-31.884C242.371,220.719,231.97,219.725,221.567,217.896z M252.772,176.812c-9.173,1.542-17.588,9.749-23.991,22.188    c-1.986,3.867-3.791,8.129-5.332,12.728c9.775,1.673,19.575,2.614,29.323,2.771V176.812z M283.22,199    c-6.403-12.439-14.819-20.646-24.019-22.188v37.687c9.775-0.156,19.575-1.072,29.35-2.744    C287.009,207.154,285.206,202.867,283.22,199z M217.099,210.525c1.725-5.227,3.737-10.088,5.984-14.453    c3.476-6.794,7.579-12.492,12.152-16.805c-13.616,3.686-25.768,10.873-35.439,20.543    C191.121,208.486,206.958,208.461,217.099,210.525z M210.304,252.785c0.235-12.963,2.013-25.221,4.966-36.092    c-8.076-1.673-16.151-3.842-24.227-6.508c-8.573,12.127-13.826,26.789-14.453,42.6H210.304z M215.19,295.02    c-2.9-10.795-4.651-22.947-4.887-35.805H176.59c0.627,15.707,5.828,30.264,14.27,42.338    C198.961,298.887,207.063,296.691,215.19,295.02z M235.236,332.731c-4.574-4.312-8.676-10.01-12.152-16.778    c-2.299-4.469-4.338-9.435-6.089-14.767c-7.318,1.489-14.662,3.425-22.005,5.776c1.542,1.803,3.136,3.555,4.808,5.227    C209.468,321.886,221.62,329.073,235.236,332.731z M295.006,301.135c-1.751,5.357-3.789,10.323-6.09,14.818    c-3.501,6.769-7.578,12.467-12.152,16.778c13.617-3.658,25.77-10.846,35.439-20.542c1.672-1.672,3.266-3.424,4.809-5.252    C309.668,304.584,302.323,302.65,295.006,301.135z M301.696,259.215c-0.235,12.832-1.985,24.959-4.86,35.752    c8.102,1.699,16.203,3.868,24.305,6.586c8.442-12.074,13.643-26.631,14.27-42.338H301.696z M296.758,216.72    c2.927,10.872,4.703,23.103,4.938,36.065h33.714c-0.627-15.811-5.88-30.447-14.452-42.574    C312.883,212.878,304.807,215.047,296.758,216.72z M276.764,179.268c4.574,4.313,8.651,10.011,12.152,16.805    c2.248,4.392,4.261,9.252,5.985,14.505c7.291-1.515,14.583-3.423,21.901-5.749c-1.463-1.75-3.006-3.424-4.6-5.018    C302.533,190.141,290.381,182.953,276.764,179.268z M255.987,26.015c6.351,0,12.126,2.587,16.282,6.743    c4.182,4.181,6.77,9.93,6.77,16.281c0,5.201-1.751,10.01-4.652,13.852l174.737,174.711c3.842-2.901,8.65-4.627,13.852-4.627    c6.324,0,12.1,2.588,16.255,6.743c4.182,4.182,6.77,9.932,6.77,16.282s-2.588,12.126-6.743,16.282l-0.235,0.183    c-4.129,4.051-9.8,6.561-16.046,6.561c-5.228,0-10.01-1.726-13.878-4.627l-86.819,86.846c-1.255,1.255-3.293,1.255-4.547,0    c-1.256-1.254-1.256-3.293,0-4.547l86.845-86.846l-0.026-0.053l-0.025-0.025l-0.053-0.078l-0.053-0.079l-0.052-0.026v-0.025    l-0.053-0.079l-0.052-0.078l-0.053-0.053v-0.025l-0.052-0.079l-0.053-0.078l-0.053-0.026v-0.026L444,269.041l-0.052-0.078    l-0.026-0.053l-0.025-0.025l-0.053-0.078l-0.052-0.08l-0.026-0.051l-0.026-0.027l-0.053-0.051l-0.052-0.079l-0.026-0.052    l-0.026-0.026l-0.052-0.079l-0.026-0.078l-0.053-0.053v-0.025l-0.052-0.079l-0.053-0.078l-0.026-0.052l-0.025-0.025l-0.053-0.08    l-0.026-0.078l-0.052-0.053v-0.025l-0.053-0.078l-0.131-0.235l-0.051-0.078l-0.027-0.053l-0.025-0.026l-0.026-0.078l-0.078-0.131    l-0.026-0.025l-0.026-0.078l-0.052-0.078l-0.026-0.053l-0.026-0.027l-0.026-0.078l-0.052-0.078    c-1.072-2.092-1.855-4.391-2.274-6.795l-0.026-0.104v-0.027l-0.025-0.156l-0.026-0.105v-0.025l-0.026-0.262v-0.026l-0.026-0.13    l-0.104-0.862v-0.105v-0.025l-0.026-0.131v-0.131v-0.026v-0.131l-0.025-0.131v-0.025v-0.131v-0.131v-0.025l-0.026-0.131v-0.131    v-0.026v-0.13v-0.158l0,0v-0.131v-0.156l0,0v-0.13V256v-0.157v-0.13l0,0v-0.156v-0.131v-0.027v-0.131v-0.13v-0.026v-0.131    l0.026-0.131v-0.025v-0.131v-0.131v-0.025l0.025-0.131v-0.131v-0.053v-0.104l0.026-0.131v-0.052v-0.079l0.026-0.286l0.026-0.158    v-0.053l0.026-0.078l0.025-0.208v-0.079l0.026-0.13c0.34-2.509,1.098-4.888,2.169-7.083l0,0l0.053-0.078l0.209-0.418l0,0    l0.026-0.078l0.053-0.08l0.183-0.313v-0.026l0.026-0.052l0.183-0.314l0.052-0.078l0.026-0.025l0.026-0.053l0.052-0.078    l0.026-0.078l0.026-0.027l0.026-0.053l0.052-0.078l0.053-0.077l0.026-0.026l0.025-0.053l0.053-0.078l0.026-0.078l0.025-0.026    l0.026-0.053l0.053-0.078l0.052-0.079l0.026-0.025l0.026-0.025l0.053-0.078l0.052-0.08l0.026-0.051l0.026-0.027l0.052-0.078    l0.052-0.078l0.026-0.053l0.025-0.025l0.053-0.053l0.053-0.078l0.025-0.079h0.026l0.053-0.078l0.052-0.078l0.026-0.053    l0.026-0.026l0.052-0.052l0.105-0.157l0,0l0.052-0.078L269.839,67.438l-0.026,0.027l-0.053,0.025l-0.052,0.053l-0.079,0.053    l-0.052,0.025l-0.026,0.025l-0.078,0.053l-0.079,0.053l-0.026,0.025l-0.025,0.026l-0.079,0.053l-0.078,0.052l-0.052,0.026    l-0.026,0.026l-0.078,0.052l-0.078,0.053l-0.026,0.026l-0.026,0.025l-0.078,0.053l-0.078,0.053l-0.053,0.025h-0.026l-0.078,0.053    l-0.078,0.051l-0.053,0.027l-0.026,0.025l-0.078,0.053l-0.079,0.053l-0.052,0.025l-0.026,0.027l-0.078,0.025l-0.052,0.053    l-0.078,0.053h-0.026l-0.053,0.051l-0.078,0.053l-0.053,0.026h-0.025l-0.079,0.052l-0.235,0.131l-0.078,0.053l-0.079,0.052h-0.025    l-0.079,0.053l-0.13,0.078h-0.025l-0.079,0.052l-0.078,0.027l-0.053,0.051h-0.025l-0.079,0.053l-0.078,0.027    c-2.17,1.123-4.548,1.934-7.057,2.326l-0.131,0.025h-0.026l-0.235,0.052h-0.025h-0.157l-0.836,0.104l-0.131,0.026h-0.026h-0.131    h-0.13h-0.026l-0.131,0.026h-0.131l0,0h-0.156l-0.131,0.025l0,0h-0.157h-0.13l0,0h-0.157l-0.131,0.026h-0.025h-0.131h-0.131    h-0.026h-0.13h-0.157h-0.131H255.7l0,0h-0.131h-0.157l0,0l-0.131-0.026h-0.157h-0.025h-0.105h-0.156h-0.026l-0.104-0.025h-0.157    h-0.026h-0.104l-0.157-0.026h-0.025h-0.105h-0.156l-0.026-0.026h-0.104l-0.288-0.026l-0.131-0.025h-0.078h-0.079l-0.208-0.026    l-0.078-0.026h-0.131c-2.509-0.366-4.887-1.097-7.083-2.194l0,0l-0.078-0.027l-0.078-0.053l-0.235-0.129l-0.079-0.027    l-0.025-0.025l-0.053-0.027l-0.078-0.051l-0.34-0.157v-0.026l-0.078-0.026l-0.078-0.052l-0.079-0.053l-0.156-0.078l-0.079-0.053    h-0.026l-0.052-0.052l-0.079-0.026l-0.078-0.053l-0.026-0.025l-0.052-0.025l-0.079-0.053l-0.078-0.053h-0.026l-0.026-0.025    l-0.078-0.053l-0.078-0.053l-0.053-0.025l-0.026-0.027l-0.078-0.053l-0.078-0.051l-0.052-0.026l-0.026-0.026l-0.078-0.025    l-0.078-0.053l-0.053-0.053h-0.026l-0.078-0.052l-0.053-0.053l-0.052-0.052h-0.026l-0.079-0.053l-0.078-0.052l-0.052-0.053h-0.026    l-0.079-0.052l-0.052-0.053l-0.079-0.053l0,0l-0.078-0.051l-0.131-0.105h-0.026l-0.052-0.053l-45.266,45.24    c-1.254,1.254-3.293,1.254-4.547,0c-1.255-1.256-1.255-3.293,0-4.548l45.266-45.239c-2.927-3.868-4.652-8.65-4.652-13.852    c0-6.352,2.587-12.101,6.743-16.281C243.887,28.602,249.636,26.015,255.987,26.015z M306.244,75.174    c-1.254-1.254-1.254-3.293,0-4.547c1.254-1.256,3.293-1.256,4.548,0l129.602,129.602c1.229,1.229,1.229,3.267,0,4.521    c-1.255,1.254-3.293,1.254-4.548,0L306.244,75.174z M286.513,452.246c-1.778,0-3.215-1.465-3.215-3.215    c0-1.777,1.437-3.215,3.215-3.215h117.136c1.777,0,3.215,1.438,3.215,3.215c0,1.75-1.438,3.215-3.215,3.215H286.513z     M420.636,452.246c-1.777,0-3.215-1.465-3.215-3.215c0-1.777,1.438-3.215,3.215-3.215h20.725c1.777,0,3.215,1.438,3.215,3.215    c0,1.75-1.438,3.215-3.215,3.215H420.636z M88.176,451.854c-1.777,0-3.214-1.438-3.214-3.215s1.437-3.214,3.214-3.214h78.536    c1.776,0,3.214,1.437,3.214,3.214s-1.438,3.215-3.214,3.215H88.176z M58.644,323.062c-1.254-1.254-1.254-3.293,0-4.548    c1.254-1.254,3.293-1.254,4.547,0l114.104,114.131l0.236,0.235h43.88L62.877,274.398c-3.841,2.901-8.65,4.627-13.851,4.627    c-6.351,0-12.101-2.588-16.282-6.743c-4.155-4.156-6.743-9.932-6.743-16.282s2.587-12.101,6.743-16.256    c4.182-4.182,9.932-6.77,16.282-6.77c5.201,0,10.01,1.726,13.877,4.627l72.577-72.604c1.253-1.254,3.292-1.254,4.547,0    c1.253,1.256,1.253,3.293,0,4.548l-72.603,72.603l0.026,0.053l0.026,0.025l0.052,0.078l0.053,0.079l0.026,0.026l0.026,0.025    l0.052,0.079l0.052,0.078l0.026,0.053l0.026,0.025l0.052,0.079l0.052,0.078l0.026,0.026l0.026,0.026L68,242.959l0.052,0.078    l0.026,0.053l0.026,0.025l0.052,0.078l0.053,0.08l0.026,0.051l0.026,0.027l0.052,0.051l0.053,0.079l0.025,0.052l0.026,0.026    l0.026,0.079l0.053,0.078l0.025,0.052l0.026,0.026l0.053,0.079l0.052,0.077l0.026,0.053l0.026,0.025l0.026,0.08l0.052,0.078    l0.026,0.053l0.026,0.025l0.052,0.078l0.445,0.783l0.026,0.053v0.027l0.052,0.078c1.15,2.195,1.986,4.626,2.379,7.16v0.105v0.025    l0.052,0.262v0.026l0.026,0.13l0.078,0.862l0.026,0.105v0.025v0.131l0.026,0.13v0.027v0.131l0.026,0.131v0.025v0.131v0.131v0.025    v0.131l0.026,0.131v0.026v0.13v0.158l0,0v0.131v0.156l0,0v0.13V256v0.157v0.13l0,0v0.156v0.131v0.027v0.131v0.13v0.026    l-0.026,0.131v0.131v0.025v0.131v0.131v0.025l-0.026,0.131v0.131v0.053l-0.026,0.104v0.131v0.052l-0.026,0.079l-0.025,0.286v0.158    v0.053l-0.026,0.078l-0.026,0.208v0.079l-0.026,0.13c-0.34,2.509-1.098,4.888-2.169,7.083l0,0l-0.053,0.078l-0.052,0.079    l-0.104,0.261l-0.053,0.078l0,0l-0.052,0.078l-0.026,0.08l-0.183,0.313v0.026l-0.052,0.052l-0.026,0.079l-0.053,0.078    l-0.104,0.157l-0.026,0.078l-0.025,0.025l-0.026,0.053l-0.052,0.078l-0.052,0.078v0.027l-0.026,0.053l-0.053,0.077l-0.052,0.078    l-0.026,0.026l-0.026,0.053l-0.052,0.078l-0.053,0.078l-0.026,0.026v0.053l-0.052,0.078l-0.053,0.079l-0.026,0.025l-0.026,0.025    l-0.052,0.078l-0.053,0.08l-0.025,0.051l-0.026,0.027l-0.053,0.078L68,269.041l-0.026,0.053l-0.026,0.025l-0.053,0.053    l-0.052,0.078l-0.026,0.079h-0.026l-0.052,0.078l-0.052,0.078l-0.052,0.053v0.026l-0.053,0.052l-0.104,0.157l0,0l-0.053,0.078    l174.737,174.71l0.026-0.026l0.025-0.025l0.079-0.053l0.078-0.052l0.052-0.025l0.025-0.026l0.079-0.053l0.052-0.052l0.053-0.026    l0.026-0.026l0.078-0.053l0.078-0.052l0.053-0.026l0.026-0.026l0.078-0.052l0.053-0.053l0.052-0.026l0.026-0.025l0.079-0.053    l0.078-0.053l0.052-0.025h0.026l0.079-0.053l0.078-0.052l0.053-0.026l0.025-0.026l0.079-0.053l0.078-0.052l0.026-0.025    l0.052-0.026l0.053-0.052l0.078-0.026l0.052-0.053h0.026l0.078-0.052l0.078-0.053l0.053-0.026l0.026-0.025l0.078-0.026    l0.235-0.131l0.079-0.053l0.052-0.052h0.026l0.078-0.053l0.131-0.078h0.052l0.078-0.053l0.079-0.026l0.052-0.052h0.026    l0.078-0.053l0.079-0.026c2.091-1.098,4.39-1.881,6.769-2.272l0.131-0.026h0.025l0.131-0.026l0.131-0.025l0,0l0.261-0.053h0.026    h0.131l0.862-0.104l0.131-0.026l0,0h0.156h0.13l0,0l0.157-0.026h0.131l0,0h0.157l0.131-0.026l0,0h0.156h0.131l0,0h0.157    l0.131-0.025l0,0h0.157h0.131l0,0h0.156h0.131h0.157h0.13h0.026h0.131h0.131h0.025l0.131,0.025h0.157l0,0h0.13h0.157h0.026    l0.104,0.026h0.156h0.026h0.104l0.131,0.026h0.053h0.104h0.131l0.053,0.026h0.104l0.287,0.026l0.131,0.025h0.053h0.078    l0.209,0.026l0.078,0.026h0.157c2.509,0.365,4.887,1.098,7.056,2.195h0.026l0.053,0.026l0.104,0.052l0.235,0.13l0.078,0.026    l0.026,0.026l0.053,0.026l0.078,0.052l0.313,0.157l0.026,0.026l0.053,0.026l0.104,0.052l0.078,0.053l0.131,0.078l0.104,0.053    h0.026l0.053,0.026l0.078,0.052l0.078,0.053l0.026,0.025l0.026,0.026l0.104,0.053l0.052,0.026l0.052,0.025l0.026,0.026    l0.078,0.052l0.079,0.052l0.052,0.026l0.026,0.026l0.079,0.053l0.078,0.052l0.052,0.026l0.026,0.026l0.079,0.025l0.078,0.053    l0.053,0.053h0.025l0.053,0.052l0.078,0.053l0.053,0.052h0.025l0.078,0.053l0.078,0.052l0.053,0.053h0.026l0.052,0.053    l0.079,0.052l0.078,0.053l0,0l0.078,0.052l0.131,0.104l0,0l0.079,0.052l36.039-36.013c1.255-1.255,3.294-1.255,4.548,0    c1.254,1.254,1.254,3.292,0,4.547l-36.04,36.014c2.928,3.868,4.652,8.651,4.652,13.852c0,6.351-2.588,12.127-6.77,16.282    l-0.208,0.208c-4.13,4.025-9.827,6.534-16.074,6.534c-6.351,0-12.1-2.587-16.281-6.742c-4.155-4.155-6.743-9.932-6.743-16.282    c0-5.2,1.75-10.01,4.652-13.852l-9.8-9.801h-108.93c-1.778,0-3.215-1.437-3.215-3.214c0-1.752,1.437-3.215,3.215-3.215h49.577    L58.644,323.062z M272.817,124.673L387.314,239.17c-9.252,9.252-9.252,24.408,0,33.66L272.817,387.327    c-9.251-9.252-24.383-9.252-33.635,0L124.686,272.83c9.252-9.252,9.252-24.408,0-33.66l114.497-114.497    C248.435,133.925,263.566,133.925,272.817,124.673z" style="fill-rule:evenodd;clip-rule:evenodd;"/>
</g>
</g>
<g id="Layer_1"/>
</svg>